
        <svg xmlns="http://www.w3.org/2000/svg" xmlns:xlink="http://www.w3.org/1999/xlink" version="1.1" width="3162.2595181512065" 
        height="953.6044595508214" viewBox="0 0 3162.2595181512065 953.6044595508214">
			
			<g transform="scale(8.112975907560333) translate(10, 10)">
				<defs id="SvgjsDefs6823"></defs><g id="SvgjsG6824" featureKey="symbolFeature-0" transform="matrix(1.2238282291164093,0,0,1.2238282291164093,-11.46849468985847,-11.847995319195984)" fill="#8dbffd"><g xmlns="http://www.w3.org/2000/svg"><g><g><g><circle cx="42.692" cy="80.595" r="3.888"></circle></g><g><path d="M47.234,63.9c-2.255-2.058-3.994-8.579,2.516-10.977c6.207-2.287,13.525,12.121,1.83,15.094      c-12.603,3.204-18.063-19.139-6.175-27.443c31.126-21.742-3.546-40.633-0.124-9.834c5.776,42.406,6.482,41.893,6.698,47.784      c0.15,4.093-2.425,7.332-6.77,6.417c-1.409-0.297,0.298-1.566,0.229-1.601c-1.372-0.686-3.016,1.147-4.117,0.915      c8.69,4.803,11.756-1.338,11.507-5.946c-0.173-3.197-5.104-47.366-5.104-48.661c0-13.264,7.972-11.663,7.286-5.489      S40.145,40.573,36.486,48.12s-2.884,17.575,8.462,21.269c11.238,3.659,21.758-9.148,16.269-16.009      C52.911,42.998,37.204,56.124,47.234,63.9z"></path></g></g><g><path d="M38.43,27.664H21.825c-0.764,0-1.384-0.619-1.384-1.384c0-0.765,0.62-1.384,1.384-1.384H38.43     c0.764,0,1.384,0.619,1.384,1.384C39.814,27.045,39.194,27.664,38.43,27.664z"></path></g><g><path d="M77.175,27.664H63.337c-0.764,0-1.384-0.619-1.384-1.384c0-0.765,0.62-1.384,1.384-1.384h13.837     c0.764,0,1.384,0.619,1.384,1.384C78.559,27.045,77.939,27.664,77.175,27.664z"></path></g><g><path d="M34.279,40.117H14.906c-0.764,0-1.384-0.619-1.384-1.384c0-0.765,0.62-1.384,1.384-1.384h19.372     c0.764,0,1.384,0.619,1.384,1.384C35.663,39.499,35.043,40.117,34.279,40.117z"></path></g><g><path d="M84.094,40.117H55.035c-0.764,0-1.384-0.619-1.384-1.384c0-0.765,0.62-1.384,1.384-1.384h29.059     c0.764,0,1.384,0.619,1.384,1.384C85.477,39.499,84.858,40.117,84.094,40.117z"></path></g><g><path d="M27.36,52.571H10.755c-0.764,0-1.384-0.619-1.384-1.384s0.62-1.384,1.384-1.384H27.36c0.764,0,1.384,0.619,1.384,1.384     S28.124,52.571,27.36,52.571z"></path></g><g><path d="M88.245,52.571H67.489c-0.764,0-1.384-0.619-1.384-1.384s0.62-1.384,1.384-1.384h20.756c0.764,0,1.384,0.619,1.384,1.384     S89.009,52.571,88.245,52.571z"></path></g><g><path d="M30.128,65.025H16.29c-0.764,0-1.384-0.619-1.384-1.384c0-0.765,0.62-1.384,1.384-1.384h13.837     c0.764,0,1.384,0.619,1.384,1.384C31.511,64.406,30.892,65.025,30.128,65.025z"></path></g><g><path d="M84.094,65.025H67.489c-0.764,0-1.384-0.619-1.384-1.384c0-0.765,0.62-1.384,1.384-1.384h16.605     c0.764,0,1.384,0.619,1.384,1.384C85.477,64.406,84.858,65.025,84.094,65.025z"></path></g><g><path d="M32.895,77.479h-9.686c-0.764,0-1.384-0.619-1.384-1.384c0-0.765,0.62-1.384,1.384-1.384h9.686     c0.764,0,1.384,0.619,1.384,1.384C34.279,76.86,33.659,77.479,32.895,77.479z"></path></g><g><path d="M75.791,77.479H60.57c-0.764,0-1.384-0.619-1.384-1.384c0-0.765,0.62-1.384,1.384-1.384h15.221     c0.764,0,1.384,0.619,1.384,1.384C77.175,76.86,76.555,77.479,75.791,77.479z"></path></g></g></g></g><g id="SvgjsG6825" featureKey="nameFeature-0" transform="matrix(2.2015233213225933,0,0,2.2015233213225933,123.20561431923431,-26.139772173433144)" fill="#8dbffd"><path d="M11.48 39.72 c-1.08 -1.04 -0.68 -2.28 -0.24 -3.48 c0.2 -0.44 0.44 -0.84 0.56 -1.28 c0.32 -0.84 1.4 -1.8 0.52 -2.48 c-0.6 -0.48 -1.68 0.36 -2.44 0.88 c-1.32 0.84 -2.4 1.92 -3.44 3.04 c-0.4 0.44 -0.84 0.84 -1.24 1.28 c-0.24 0.2 -0.52 0.24 -0.76 0.08 c-0.28 -0.2 -0.12 -0.44 0 -0.68 c0.48 -1 0.96 -2.04 1.4 -3.08 c0.2 -0.48 0.68 -1.08 0.16 -1.44 c-0.4 -0.28 -0.96 0.2 -1.44 0.44 c-2.24 1.2 -3.6 3.32 -5.24 5.12 c-0.2 0.2 -0.28 0.44 -0.48 0.64 c-0.24 0.28 -0.48 0.76 -0.96 0.48 c-0.44 -0.24 -0.16 -0.72 -0.12 -1.08 c0.44 -2.04 1.56 -3.8 2.24 -5.72 c0.08 -0.24 0.36 -0.48 0.64 -0.36 c0.24 0.12 0.24 0.44 0.16 0.72 c-0.52 1.28 -1.2 2.68 -1.68 3.92 c-0.12 0.2 0.16 0.16 0.28 0.04 c0.88 -0.76 1.56 -1.76 2.44 -2.56 c0.56 -0.48 1.08 -0.96 1.68 -1.36 c0.92 -0.6 1.92 -1.72 3 -1.08 c1.12 0.64 0.16 1.88 0 2.84 c-0.04 0.24 -0.16 0.44 -0.04 0.56 c0.08 0.08 0.24 0.04 0.48 -0.2 c1.48 -1.16 2.4 -2.52 4.32 -3.12 c0.6 -0.2 1.2 -0.44 1.72 -0.04 c0.6 0.52 0.48 1.24 0.24 1.88 c-0.4 1.04 -0.96 2 -1.36 3.04 c-0.32 0.88 -0.6 1.96 0.24 2.6 c0.72 0.64 1.64 0.2 2.4 -0.24 c1.36 -0.8 3.4 -2.44 8.16 -6.6 c0.16 -0.16 0.4 -0.44 0.6 -0.08 c0.08 0.08 -0.12 0.36 -0.24 0.48 c-2.8 2.64 -4.84 4.6 -8.12 6.68 c-1.04 0.64 -2.32 1.28 -3.44 0.16 z M17.05 55.32 c-1.88 -0.56 -2.48 -1.76 -1.84 -3.64 c0.6 -1.76 1.84 -3.08 3.12 -4.32 c1.16 -1.16 1.96 -2.08 3.4 -3.04 c3.44 -1.88 5.32 -5.16 6.48 -8.6 c0.08 -0.16 -0.08 -0.36 -0.2 -0.2 c-1.24 1 -2.24 2.28 -3.64 3.08 c-0.64 0.4 -1.32 0.76 -2.04 0.44 c-0.88 -0.4 -0.6 -1.28 -0.6 -1.96 c0.04 -1.84 0.96 -3.4 1.8 -5 c0.12 -0.2 0.36 -0.4 0.64 -0.16 c0.16 0.16 0.08 0.32 0 0.52 c-0.44 0.96 -0.88 1.92 -1.28 2.92 c-0.2 0.52 -0.36 1.12 -0.44 1.72 c-0.04 0.4 -0.2 1 0.24 1.28 s0.88 -0.04 1.28 -0.28 c1.84 -1.16 3.16 -2.88 4.64 -4.36 c0.56 -0.52 1 -1.84 1.64 -1.4 c0.72 0.52 -0.08 1.6 -0.44 2.36 c-0.72 1.6 -1.52 3.2 -2.28 4.84 c-0.12 0.2 -0.28 0.56 -0.08 0.68 c0.24 0.2 0.44 -0.12 0.64 -0.24 c3.64 -2.32 7.28 -4.52 10.88 -6.8 c0.36 -0.24 0.68 -0.44 1.04 -0.64 c0.2 -0.16 0.44 -0.44 0.64 -0.12 s-0.16 0.44 -0.36 0.56 c-2.36 1.56 -4.76 3 -7.12 4.56 c-0.96 0.64 -1.84 1.36 -2.88 1.8 c-3.16 1.96 -4.48 3.84 -5.48 6.84 c-0.84 2.56 -1.84 5.12 -3.48 7.32 c-1.16 1.56 -2.92 2.28 -4.28 1.84 z M18.57 54.64 c1.12 -0.48 2.04 -1.24 2.64 -2.28 c1.6 -2.88 2.92 -5.88 3.72 -9.12 l-0.08 -0.04 c-3.4 1.88 -6.24 4.36 -8.48 7.56 c-0.28 0.36 -0.48 0.8 -0.6 1.24 c-0.28 0.8 -0.32 1.64 0.4 2.2 c0.68 0.48 1.44 0.84 2.4 0.44 z M41.870000000000005 56.08 c-0.72 -0.36 -1.04 -1 -0.92 -1.8 c0.16 -1.12 0.56 -2.2 1 -3.2 c1.24 -2.64 2.72 -5.2 4.56 -7.48 c2.12 -2.72 3.6 -5.68 4.52 -8.96 c0.32 -1.04 0.68 -3.16 1.6 -2.96 c0.44 0.12 -0.6 2.12 -0.8 3.2 c-0.2 0.76 -0.56 1.76 -0.4 1.96 c0.4 0.08 1.04 -0.76 1.56 -1.24 c1.28 -1.16 2.4 -2.52 3.88 -3.44 c0.52 -0.32 1.04 -0.64 1.6 -0.84 c1.72 -0.6 2.52 0 2.4 2.12 c0 0.64 -0.32 1.4 -0.72 2.2 c-0.2 0.36 -0.76 0.84 -0.48 1.2 c0.4 0.48 1.04 -0.04 1.48 -0.16 c2.96 -0.84 4.84 -2.08 7.44 -3.68 c0.32 -0.2 1.16 -1.04 1.44 -0.6 c0.2 0.28 -0.48 0.72 -0.84 0.96 c-2.64 1.68 -4.56 3 -7.6 3.88 c-1.88 0.52 -3.76 1.04 -5.32 2.32 c-0.84 0.56 -1.96 1 -2.76 0.36 c-0.32 -0.28 -0.56 -0.72 -0.32 -1.28 c0.44 -1.04 1.36 -1.04 2.32 -1.08 c2.72 -0.12 4.64 -2.04 4.64 -4.6 c0 -1 -0.36 -1.36 -1.36 -0.92 c-0.28 0.12 -0.64 0.2 -0.88 0.4 c-3.6 2.72 -7.24 5.44 -8.68 10.04 c-1.04 3.28 -2.36 6.44 -3.68 9.64 c-0.52 1.2 -1.12 2.44 -2.12 3.36 c-0.4 0.4 -0.88 0.92 -1.56 0.6 z M54.47 39.52 c0.72 -0.12 1.4 -0.44 1.72 -1.08 c0.12 -0.2 -0.48 -0.16 -0.72 -0.2 c-0.72 -0.04 -1.36 0.04 -1.52 0.84 c-0.04 0.28 0.24 0.48 0.52 0.44 z M42.07 55.28 c0.48 0.16 0.76 -0.2 1 -0.52 c0.36 -0.44 0.72 -0.96 1 -1.48 c1.48 -3.04 2.64 -6.2 3.76 -9.4 c0.08 -0.24 0.24 -0.48 0.04 -0.72 c-0.2 0.16 -0.48 0.28 -0.64 0.48 c-1.84 2.68 -3.68 5.36 -4.92 8.4 c-0.24 0.68 -0.52 1.36 -0.72 1.84 c0 0.68 -0.08 1.2 0.48 1.4 z M81.48 39.72 c-1.08 -1.04 -0.68 -2.28 -0.24 -3.48 c0.2 -0.44 0.44 -0.84 0.56 -1.28 c0.32 -0.84 1.4 -1.8 0.52 -2.48 c-0.6 -0.48 -1.68 0.36 -2.44 0.88 c-1.32 0.84 -2.4 1.92 -3.44 3.04 c-0.4 0.44 -0.84 0.84 -1.24 1.28 c-0.24 0.2 -0.52 0.24 -0.76 0.08 c-0.28 -0.2 -0.12 -0.44 0 -0.68 c0.48 -1 0.96 -2.04 1.4 -3.08 c0.2 -0.48 0.68 -1.08 0.16 -1.44 c-0.4 -0.28 -0.96 0.2 -1.44 0.44 c-2.24 1.2 -3.6 3.32 -5.24 5.12 c-0.2 0.2 -0.28 0.44 -0.48 0.64 c-0.24 0.28 -0.48 0.76 -0.96 0.48 c-0.44 -0.24 -0.16 -0.72 -0.12 -1.08 c0.44 -2.04 1.56 -3.8 2.24 -5.72 c0.08 -0.24 0.36 -0.48 0.64 -0.36 c0.24 0.12 0.24 0.44 0.16 0.72 c-0.52 1.28 -1.2 2.68 -1.68 3.92 c-0.12 0.2 0.16 0.16 0.28 0.04 c0.88 -0.76 1.56 -1.76 2.44 -2.56 c0.56 -0.48 1.08 -0.96 1.68 -1.36 c0.92 -0.6 1.92 -1.72 3 -1.08 c1.12 0.64 0.16 1.88 0 2.84 c-0.04 0.24 -0.16 0.44 -0.04 0.56 c0.08 0.08 0.24 0.04 0.48 -0.2 c1.48 -1.16 2.4 -2.52 4.32 -3.12 c0.6 -0.2 1.2 -0.44 1.72 -0.04 c0.6 0.52 0.48 1.24 0.24 1.88 c-0.4 1.04 -0.96 2 -1.36 3.04 c-0.32 0.88 -0.6 1.96 0.24 2.6 c0.72 0.64 1.64 0.2 2.4 -0.24 c1.36 -0.8 3.4 -2.44 8.16 -6.6 c0.16 -0.16 0.4 -0.44 0.6 -0.08 c0.08 0.08 -0.12 0.36 -0.24 0.48 c-2.8 2.64 -4.84 4.6 -8.12 6.68 c-1.04 0.64 -2.32 1.28 -3.44 0.16 z M97.09 39.56 c-3.24 1.48 -5.2 -0.28 -4.84 -3.2 c0.12 -0.96 0.32 -2.04 0.72 -3 c2.88 -6.88 6.6 -13.2 11.92 -18.48 c1.08 -1.08 2.28 -2.04 3.72 -2.64 c2.4 -0.96 3.72 0 3.32 2.48 c-0.44 2.88 -2.12 5.16 -3.96 7.24 c-3.6 4 -7.84 7.16 -12.72 9.4 c-0.48 0.24 -0.76 0.52 -0.96 0.96 c-0.52 1.2 -0.96 2.44 -1.16 3.76 c-0.36 2.76 1.16 3.92 3.68 2.84 c2.48 -1.08 4.48 -2.88 6.52 -4.52 l2.44 -2 c0.12 -0.08 0.44 -0.2 0.52 -0.12 c0.32 0.24 0.08 0.48 -0.12 0.64 c-3.04 2.32 -5.52 5 -9.08 6.64 z M95.73 30.439999999999998 c3.8 -1.72 7 -4.28 10.04 -7.04 c2.32 -2.16 4.24 -4.76 5.28 -7.84 c0.32 -0.84 0.56 -1.92 -0.2 -2.64 c-0.88 -0.8 -1.72 0.08 -2.52 0.36 c-0.44 0.16 -0.84 0.48 -1.2 0.76 c-5.16 4.44 -8.96 9.96 -11.76 16.12 c-0.2 0.32 0.04 0.44 0.36 0.28 z"></path></g>
			</g>
		</svg>
	